{
    "asset" : {
        "generator" : "Khronos glTF Blender I/O v1.3.48",
        "version" : "2.0"
    },
    "scene" : 0,
    "scenes" : [
        {
            "name" : "Scene",
            "nodes" : [
                0,
                1,
                2,
                3,
                4,
                5,
                6,
                7,
                8,
                9
            ]
        }
    ],
    "nodes" : [
        {
            "name" : "Lamp.007",
            "rotation" : [
                0.16907575726509094,
                0.7558803558349609,
                -0.27217137813568115,
                0.570947527885437
            ],
            "translation" : [
                0,
                -10,
                -15
            ]
        },
        {
            "name" : "Lamp.006",
            "rotation" : [
                0.27217137813568115,
                -0.570947527885437,
                0.16907577216625214,
                0.7558803558349609
            ],
            "translation" : [
                0,
                -10,
                15
            ]
        },
        {
            "name" : "Lamp.005",
            "rotation" : [
                0.07289962470531464,
                -0.9382089376449585,
                0.3120088577270508,
                0.13076728582382202
            ],
            "translation" : [
                -15,
                -10,
                2.86102294921875e-06
            ]
        },
        {
            "name" : "Lamp.004",
            "rotation" : [
                0.3120088577270508,
                0.13076725602149963,
                -0.07289961725473404,
                0.9382089376449585
            ],
            "translation" : [
                15,
                -10,
                0
            ]
        },
        {
            "name" : "Lamp.003",
            "rotation" : [
                0.3120088577270508,
                0.13076725602149963,
                -0.07289961725473404,
                0.9382089376449585
            ],
            "translation" : [
                15,
                10,
                0
            ]
        },
        {
            "name" : "Lamp.002",
            "rotation" : [
                0.07289962470531464,
                -0.9382089376449585,
                0.3120088577270508,
                0.13076728582382202
            ],
            "translation" : [
                -15,
                10,
                2.86102294921875e-06
            ]
        },
        {
            "name" : "Lamp.001",
            "rotation" : [
                0.27217137813568115,
                -0.570947527885437,
                0.16907577216625214,
                0.7558803558349609
            ],
            "translation" : [
                0,
                10,
                15
            ]
        },
        {
            "mesh" : 0,
            "name" : "Nauyaca"
        },
        {
            "name" : "Lamp",
            "rotation" : [
                0.16907575726509094,
                0.7558803558349609,
                -0.27217137813568115,
                0.570947527885437
            ],
            "translation" : [
                0,
                10,
                -15
            ]
        },
        {
            "name" : "Camera",
            "rotation" : [
                0.2774450182914734,
                0.7052083611488342,
                -0.5676035284996033,
                0.32176339626312256
            ],
            "translation" : [
                25.033470153808594,
                7.147523403167725,
                -20.246009826660156
            ]
        }
    ],
    "materials" : [
        {
            "doubleSided" : true,
            "name" : "Material",
            "pbrMetallicRoughness" : {}
        }
    ],
    "meshes" : [
        {
            "name" : "Nauyaca",
            "primitives" : [
                {
                    "attributes" : {
                        "POSITION" : 0,
                        "NORMAL" : 1,
                        "TEXCOORD_0" : 2
                    },
                    "indices" : 3,
                    "material" : 0
                }
            ]
        }
    ],
    "accessors" : [
        {
            "bufferView" : 0,
            "componentType" : 5126,
            "count" : 1490,
            "max" : [
                4.110631942749023,
                4.696750640869141,
                8.492502212524414
            ],
            "min" : [
                -4.110632419586182,
                -4.696752548217773,
                -8.5
            ],
            "type" : "VEC3"
        },
        {
            "bufferView" : 1,
            "componentType" : 5126,
            "count" : 1490,
            "type" : "VEC3"
        },
        {
            "bufferView" : 2,
            "componentType" : 5126,
            "count" : 1490,
            "type" : "VEC2"
        },
        {
            "bufferView" : 3,
            "componentType" : 5123,
            "count" : 2172,
            "type" : "SCALAR"
        }
    ],
    "bufferViews" : [
        {
            "buffer" : 0,
            "byteLength" : 17880,
            "byteOffset" : 0
        },
        {
            "buffer" : 0,
            "byteLength" : 17880,
            "byteOffset" : 17880
        },
        {
            "buffer" : 0,
            "byteLength" : 11920,
            "byteOffset" : 35760
        },
        {
            "buffer" : 0,
            "byteLength" : 4344,
            "byteOffset" : 47680
        }
    ],
    "buffers" : [
        {
            "byteLength" : 52024,
            "uri" : "data:application/octet-stream;base64,"
        }
    ]
}
