{
    "asset" : {
        "generator" : "Khronos glTF Blender I/O v1.3.48",
        "version" : "2.0"
    },
    "scene" : 0,
    "scenes" : [
        {
            "name" : "Scene",
            "nodes" : [
                0
            ]
        }
    ],
    "nodes" : [
        {
            "mesh" : 0,
            "name" : "OrionRising"
        }
    ],
    "materials" : [
        {
            "doubleSided" : true,
            "name" : "Base.Lighter",
            "pbrMetallicRoughness" : {}
        },
        {
            "doubleSided" : true,
            "name" : "Base",
            "pbrMetallicRoughness" : {}
        },
        {
            "doubleSided" : true,
            "name" : "Hull.Glass",
            "pbrMetallicRoughness" : {}
        },
        {
            "doubleSided" : true,
            "name" : "Base.Light",
            "pbrMetallicRoughness" : {}
        },
        {
            "doubleSided" : true,
            "name" : "Arm_Red.Glass",
            "pbrMetallicRoughness" : {}
        },
        {
            "doubleSided" : true,
            "emissiveFactor" : [
                0.0587071031332016,
                0.11833783984184265,
                0.2597920298576355
            ],
            "name" : "Light.Blue",
            "pbrMetallicRoughness" : {}
        },
        {
            "doubleSided" : true,
            "name" : "Base.Darker",
            "pbrMetallicRoughness" : {}
        }
    ],
    "meshes" : [
        {
            "name" : "Cube",
            "primitives" : [
                {
                    "attributes" : {
                        "POSITION" : 0,
                        "NORMAL" : 1
                    },
                    "indices" : 2,
                    "material" : 0
                },
                {
                    "attributes" : {
                        "POSITION" : 3,
                        "NORMAL" : 4
                    },
                    "indices" : 5,
                    "material" : 1
                },
                {
                    "attributes" : {
                        "POSITION" : 6,
                        "NORMAL" : 7
                    },
                    "indices" : 8,
                    "material" : 2
                },
                {
                    "attributes" : {
                        "POSITION" : 9,
                        "NORMAL" : 10
                    },
                    "indices" : 11,
                    "material" : 3
                },
                {
                    "attributes" : {
                        "POSITION" : 12,
                        "NORMAL" : 13
                    },
                    "indices" : 14,
                    "material" : 4
                },
                {
                    "attributes" : {
                        "POSITION" : 15,
                        "NORMAL" : 16
                    },
                    "indices" : 17,
                    "material" : 5
                },
                {
                    "attributes" : {
                        "POSITION" : 18,
                        "NORMAL" : 19
                    },
                    "indices" : 20,
                    "material" : 6
                }
            ]
        }
    ],
    "accessors" : [
        {
            "bufferView" : 0,
            "componentType" : 5126,
            "count" : 232,
            "max" : [
                0.9228312969207764,
                0.9885774850845337,
                1.168234944343567
            ],
            "min" : [
                -0.9228312969207764,
                0.2362748682498932,
                -2.641507863998413
            ],
            "type" : "VEC3"
        },
        {
            "bufferView" : 1,
            "componentType" : 5126,
            "count" : 232,
            "type" : "VEC3"
        },
        {
            "bufferView" : 2,
            "componentType" : 5123,
            "count" : 1026,
            "type" : "SCALAR"
        },
        {
            "bufferView" : 3,
            "componentType" : 5126,
            "count" : 2805,
            "max" : [
                1.8306961059570312,
                0.9797980785369873,
                3.687903881072998
            ],
            "min" : [
                -1.8306961059570312,
                -0.857552707195282,
                -3.4778223037719727
            ],
            "type" : "VEC3"
        },
        {
            "bufferView" : 4,
            "componentType" : 5126,
            "count" : 2805,
            "type" : "VEC3"
        },
        {
            "bufferView" : 5,
            "componentType" : 5123,
            "count" : 16026,
            "type" : "SCALAR"
        },
        {
            "bufferView" : 6,
            "componentType" : 5126,
            "count" : 25,
            "max" : [
                0.1759287416934967,
                0.429469496011734,
                0.48931631445884705
            ],
            "min" : [
                -0.1759287416934967,
                0.3488820791244507,
                -0.031185775995254517
            ],
            "type" : "VEC3"
        },
        {
            "bufferView" : 7,
            "componentType" : 5126,
            "count" : 25,
            "type" : "VEC3"
        },
        {
            "bufferView" : 8,
            "componentType" : 5123,
            "count" : 120,
            "type" : "SCALAR"
        },
        {
            "bufferView" : 9,
            "componentType" : 5126,
            "count" : 258,
            "max" : [
                1.2463598251342773,
                0.9883514046669006,
                0.07378129661083221
            ],
            "min" : [
                -1.2463598251342773,
                0.28094249963760376,
                -3.4946467876434326
            ],
            "type" : "VEC3"
        },
        {
            "bufferView" : 10,
            "componentType" : 5126,
            "count" : 258,
            "type" : "VEC3"
        },
        {
            "bufferView" : 11,
            "componentType" : 5123,
            "count" : 1164,
            "type" : "SCALAR"
        },
        {
            "bufferView" : 12,
            "componentType" : 5126,
            "count" : 64,
            "max" : [
                1.5699846744537354,
                0.8565105199813843,
                1.9017078876495361
            ],
            "min" : [
                -1.5699846744537354,
                -0.034422099590301514,
                0.46767503023147583
            ],
            "type" : "VEC3"
        },
        {
            "bufferView" : 13,
            "componentType" : 5126,
            "count" : 64,
            "type" : "VEC3"
        },
        {
            "bufferView" : 14,
            "componentType" : 5123,
            "count" : 252,
            "type" : "SCALAR"
        },
        {
            "bufferView" : 15,
            "componentType" : 5126,
            "count" : 26,
            "max" : [
                1.376418948173523,
                -0.3071383833885193,
                1.044407844543457
            ],
            "min" : [
                -1.376418948173523,
                -0.6026499271392822,
                -1.717815637588501
            ],
            "type" : "VEC3"
        },
        {
            "bufferView" : 16,
            "componentType" : 5126,
            "count" : 26,
            "type" : "VEC3"
        },
        {
            "bufferView" : 17,
            "componentType" : 5123,
            "count" : 60,
            "type" : "SCALAR"
        },
        {
            "bufferView" : 18,
            "componentType" : 5126,
            "count" : 88,
            "max" : [
                0.225735142827034,
                0.9649750590324402,
                0.7991576790809631
            ],
            "min" : [
                -0.225735142827034,
                0.30160388350486755,
                0.6489935517311096
            ],
            "type" : "VEC3"
        },
        {
            "bufferView" : 19,
            "componentType" : 5126,
            "count" : 88,
            "type" : "VEC3"
        },
        {
            "bufferView" : 20,
            "componentType" : 5123,
            "count" : 372,
            "type" : "SCALAR"
        }
    ],
    "bufferViews" : [
        {
            "buffer" : 0,
            "byteLength" : 2784,
            "byteOffset" : 0
        },
        {
            "buffer" : 0,
            "byteLength" : 2784,
            "byteOffset" : 2784
        },
        {
            "buffer" : 0,
            "byteLength" : 2052,
            "byteOffset" : 5568
        },
        {
            "buffer" : 0,
            "byteLength" : 33660,
            "byteOffset" : 7620
        },
        {
            "buffer" : 0,
            "byteLength" : 33660,
            "byteOffset" : 41280
        },
        {
            "buffer" : 0,
            "byteLength" : 32052,
            "byteOffset" : 74940
        },
        {
            "buffer" : 0,
            "byteLength" : 300,
            "byteOffset" : 106992
        },
        {
            "buffer" : 0,
            "byteLength" : 300,
            "byteOffset" : 107292
        },
        {
            "buffer" : 0,
            "byteLength" : 240,
            "byteOffset" : 107592
        },
        {
            "buffer" : 0,
            "byteLength" : 3096,
            "byteOffset" : 107832
        },
        {
            "buffer" : 0,
            "byteLength" : 3096,
            "byteOffset" : 110928
        },
        {
            "buffer" : 0,
            "byteLength" : 2328,
            "byteOffset" : 114024
        },
        {
            "buffer" : 0,
            "byteLength" : 768,
            "byteOffset" : 116352
        },
        {
            "buffer" : 0,
            "byteLength" : 768,
            "byteOffset" : 117120
        },
        {
            "buffer" : 0,
            "byteLength" : 504,
            "byteOffset" : 117888
        },
        {
            "buffer" : 0,
            "byteLength" : 312,
            "byteOffset" : 118392
        },
        {
            "buffer" : 0,
            "byteLength" : 312,
            "byteOffset" : 118704
        },
        {
            "buffer" : 0,
            "byteLength" : 120,
            "byteOffset" : 119016
        },
        {
            "buffer" : 0,
            "byteLength" : 1056,
            "byteOffset" : 119136
        },
        {
            "buffer" : 0,
            "byteLength" : 1056,
            "byteOffset" : 120192
        },
        {
            "buffer" : 0,
            "byteLength" : 744,
            "byteOffset" : 121248
        }
    ],
    "buffers" : [
        {
            "byteLength" : 121992,
            "uri" : "data:application/octet-stream;base64,"
        }
    ]
}
