{
    "asset" : {
        "generator" : "Khronos glTF Blender I/O v1.3.48",
        "version" : "2.0"
    },
    "scene" : 0,
    "scenes" : [
        {
            "name" : "Scene",
            "nodes" : [
                0
            ]
        }
    ],
    "nodes" : [
        {
            "mesh" : 0,
            "name" : "Spaceship"
        }
    ],
    "animations" : [
        {
            "channels" : [
                {
                    "sampler" : 0,
                    "target" : {
                        "node" : 0,
                        "path" : "translation"
                    }
                },
                {
                    "sampler" : 1,
                    "target" : {
                        "node" : 0,
                        "path" : "rotation"
                    }
                },
                {
                    "sampler" : 2,
                    "target" : {
                        "node" : 0,
                        "path" : "scale"
                    }
                }
            ],
            "name" : "SpaceshipAction",
            "samplers" : [
                {
                    "input" : 24,
                    "interpolation" : "LINEAR",
                    "output" : 25
                },
                {
                    "input" : 24,
                    "interpolation" : "LINEAR",
                    "output" : 26
                },
                {
                    "input" : 24,
                    "interpolation" : "LINEAR",
                    "output" : 27
                }
            ]
        }
    ],
    "materials" : [
        {
            "doubleSided" : true,
            "name" : "Glass",
            "pbrMetallicRoughness" : {}
        },
        {
            "doubleSided" : true,
            "name" : "Mat",
            "pbrMetallicRoughness" : {}
        },
        {
            "doubleSided" : true,
            "name" : "Black",
            "pbrMetallicRoughness" : {}
        },
        {
            "doubleSided" : true,
            "name" : "Metal",
            "pbrMetallicRoughness" : {}
        },
        {
            "doubleSided" : true,
            "name" : "Mat2",
            "pbrMetallicRoughness" : {}
        },
        {
            "doubleSided" : true,
            "emissiveFactor" : [
                0.35139694809913635,
                0.645769476890564,
                0.8000000715255737
            ],
            "name" : "Emision",
            "pbrMetallicRoughness" : {}
        }
    ],
    "meshes" : [
        {
            "name" : "Plane",
            "primitives" : [
                {
                    "attributes" : {
                        "POSITION" : 0,
                        "NORMAL" : 1,
                        "TEXCOORD_0" : 2
                    },
                    "indices" : 3,
                    "material" : 0
                },
                {
                    "attributes" : {
                        "POSITION" : 4,
                        "NORMAL" : 5,
                        "TEXCOORD_0" : 6
                    },
                    "indices" : 7,
                    "material" : 1
                },
                {
                    "attributes" : {
                        "POSITION" : 8,
                        "NORMAL" : 9,
                        "TEXCOORD_0" : 10
                    },
                    "indices" : 11,
                    "material" : 2
                },
                {
                    "attributes" : {
                        "POSITION" : 12,
                        "NORMAL" : 13,
                        "TEXCOORD_0" : 14
                    },
                    "indices" : 15,
                    "material" : 3
                },
                {
                    "attributes" : {
                        "POSITION" : 16,
                        "NORMAL" : 17,
                        "TEXCOORD_0" : 18
                    },
                    "indices" : 19,
                    "material" : 4
                },
                {
                    "attributes" : {
                        "POSITION" : 20,
                        "NORMAL" : 21,
                        "TEXCOORD_0" : 22
                    },
                    "indices" : 23,
                    "material" : 5
                }
            ]
        }
    ],
    "accessors" : [
        {
            "bufferView" : 0,
            "componentType" : 5126,
            "count" : 142,
            "max" : [
                1.2790157794952393,
                1.4042952060699463,
                1.704028606414795
            ],
            "min" : [
                -1.531219595563016e-11,
                -0.067826047539711,
                -1.4468212127685547
            ],
            "type" : "VEC3"
        },
        {
            "bufferView" : 1,
            "componentType" : 5126,
            "count" : 142,
            "type" : "VEC3"
        },
        {
            "bufferView" : 2,
            "componentType" : 5126,
            "count" : 142,
            "type" : "VEC2"
        },
        {
            "bufferView" : 3,
            "componentType" : 5123,
            "count" : 726,
            "type" : "SCALAR"
        },
        {
            "bufferView" : 4,
            "componentType" : 5126,
            "count" : 1196,
            "max" : [
                5.328636646270752,
                2.9896726608276367,
                2.2724721431732178
            ],
            "min" : [
                0,
                -1.1464183330535889,
                -4.89314079284668
            ],
            "type" : "VEC3"
        },
        {
            "bufferView" : 5,
            "componentType" : 5126,
            "count" : 1196,
            "type" : "VEC3"
        },
        {
            "bufferView" : 6,
            "componentType" : 5126,
            "count" : 1196,
            "type" : "VEC2"
        },
        {
            "bufferView" : 7,
            "componentType" : 5123,
            "count" : 4518,
            "type" : "SCALAR"
        },
        {
            "bufferView" : 8,
            "componentType" : 5126,
            "count" : 20,
            "max" : [
                1.4850084781646729,
                1.7135337591171265,
                -0.01985246315598488
            ],
            "min" : [
                0,
                0.3750295042991638,
                -1.9621226787567139
            ],
            "type" : "VEC3"
        },
        {
            "bufferView" : 9,
            "componentType" : 5126,
            "count" : 20,
            "type" : "VEC3"
        },
        {
            "bufferView" : 10,
            "componentType" : 5126,
            "count" : 20,
            "type" : "VEC2"
        },
        {
            "bufferView" : 11,
            "componentType" : 5123,
            "count" : 30,
            "type" : "SCALAR"
        },
        {
            "bufferView" : 12,
            "componentType" : 5126,
            "count" : 1160,
            "max" : [
                3.1135146617889404,
                1.7135337591171265,
                -1.4748287200927734
            ],
            "min" : [
                0,
                -0.47645872831344604,
                -5.040297031402588
            ],
            "type" : "VEC3"
        },
        {
            "bufferView" : 13,
            "componentType" : 5126,
            "count" : 1160,
            "type" : "VEC3"
        },
        {
            "bufferView" : 14,
            "componentType" : 5126,
            "count" : 1160,
            "type" : "VEC2"
        },
        {
            "bufferView" : 15,
            "componentType" : 5123,
            "count" : 6204,
            "type" : "SCALAR"
        },
        {
            "bufferView" : 16,
            "componentType" : 5126,
            "count" : 269,
            "max" : [
                5.328636646270752,
                1.091491460800171,
                2.2724721431732178
            ],
            "min" : [
                0,
                -0.8971234560012817,
                -4.833188056945801
            ],
            "type" : "VEC3"
        },
        {
            "bufferView" : 17,
            "componentType" : 5126,
            "count" : 269,
            "type" : "VEC3"
        },
        {
            "bufferView" : 18,
            "componentType" : 5126,
            "count" : 269,
            "type" : "VEC2"
        },
        {
            "bufferView" : 19,
            "componentType" : 5123,
            "count" : 882,
            "type" : "SCALAR"
        },
        {
            "bufferView" : 20,
            "componentType" : 5126,
            "count" : 206,
            "max" : [
                4.906935214996338,
                1.9124168157577515,
                2.1735217571258545
            ],
            "min" : [
                0,
                -0.8927826285362244,
                -4.812178134918213
            ],
            "type" : "VEC3"
        },
        {
            "bufferView" : 21,
            "componentType" : 5126,
            "count" : 206,
            "type" : "VEC3"
        },
        {
            "bufferView" : 22,
            "componentType" : 5126,
            "count" : 206,
            "type" : "VEC2"
        },
        {
            "bufferView" : 23,
            "componentType" : 5123,
            "count" : 564,
            "type" : "SCALAR"
        },
        {
            "bufferView" : 24,
            "componentType" : 5126,
            "count" : 2,
            "max" : [
                0.08333333333333333
            ],
            "min" : [
                0.041666666666666664
            ],
            "type" : "SCALAR"
        },
        {
            "bufferView" : 25,
            "componentType" : 5126,
            "count" : 2,
            "type" : "VEC3"
        },
        {
            "bufferView" : 26,
            "componentType" : 5126,
            "count" : 2,
            "type" : "VEC4"
        },
        {
            "bufferView" : 27,
            "componentType" : 5126,
            "count" : 2,
            "type" : "VEC3"
        }
    ],
    "bufferViews" : [
        {
            "buffer" : 0,
            "byteLength" : 1704,
            "byteOffset" : 0
        },
        {
            "buffer" : 0,
            "byteLength" : 1704,
            "byteOffset" : 1704
        },
        {
            "buffer" : 0,
            "byteLength" : 1136,
            "byteOffset" : 3408
        },
        {
            "buffer" : 0,
            "byteLength" : 1452,
            "byteOffset" : 4544
        },
        {
            "buffer" : 0,
            "byteLength" : 14352,
            "byteOffset" : 5996
        },
        {
            "buffer" : 0,
            "byteLength" : 14352,
            "byteOffset" : 20348
        },
        {
            "buffer" : 0,
            "byteLength" : 9568,
            "byteOffset" : 34700
        },
        {
            "buffer" : 0,
            "byteLength" : 9036,
            "byteOffset" : 44268
        },
        {
            "buffer" : 0,
            "byteLength" : 240,
            "byteOffset" : 53304
        },
        {
            "buffer" : 0,
            "byteLength" : 240,
            "byteOffset" : 53544
        },
        {
            "buffer" : 0,
            "byteLength" : 160,
            "byteOffset" : 53784
        },
        {
            "buffer" : 0,
            "byteLength" : 60,
            "byteOffset" : 53944
        },
        {
            "buffer" : 0,
            "byteLength" : 13920,
            "byteOffset" : 54004
        },
        {
            "buffer" : 0,
            "byteLength" : 13920,
            "byteOffset" : 67924
        },
        {
            "buffer" : 0,
            "byteLength" : 9280,
            "byteOffset" : 81844
        },
        {
            "buffer" : 0,
            "byteLength" : 12408,
            "byteOffset" : 91124
        },
        {
            "buffer" : 0,
            "byteLength" : 3228,
            "byteOffset" : 103532
        },
        {
            "buffer" : 0,
            "byteLength" : 3228,
            "byteOffset" : 106760
        },
        {
            "buffer" : 0,
            "byteLength" : 2152,
            "byteOffset" : 109988
        },
        {
            "buffer" : 0,
            "byteLength" : 1764,
            "byteOffset" : 112140
        },
        {
            "buffer" : 0,
            "byteLength" : 2472,
            "byteOffset" : 113904
        },
        {
            "buffer" : 0,
            "byteLength" : 2472,
            "byteOffset" : 116376
        },
        {
            "buffer" : 0,
            "byteLength" : 1648,
            "byteOffset" : 118848
        },
        {
            "buffer" : 0,
            "byteLength" : 1128,
            "byteOffset" : 120496
        },
        {
            "buffer" : 0,
            "byteLength" : 8,
            "byteOffset" : 121624
        },
        {
            "buffer" : 0,
            "byteLength" : 24,
            "byteOffset" : 121632
        },
        {
            "buffer" : 0,
            "byteLength" : 32,
            "byteOffset" : 121656
        },
        {
            "buffer" : 0,
            "byteLength" : 24,
            "byteOffset" : 121688
        }
    ],
    "buffers" : [
        {
            "byteLength" : 121712,
            "uri" : "data:application/octet-stream;base64,"
        }
    ]
}
